<svg xmlns="http://www.w3.org/2000/svg" viewBox="0 0 1764.54 800"><defs><style>.cls-1{fill:#ffa849;}</style></defs><title>Plan de travail 42</title><g id="Graphic_elements" data-name="Graphic elements"><path class="cls-1" d="M1494,597.64l0,.17c-.21.76-.32,1.54-.48,2.31-3.53-1.15-6.89-2.12-9.92.84s-1.56,6.37-.66,9.74a53.71,53.71,0,0,0-5.61.42c-4.67.84-6.57,4-5.27,8.51a10.66,10.66,0,0,0,.85,2.33c.74,1.29,1.06,2.18-1,2.33a5.12,5.12,0,0,0-3.81,2.55c-2.54,3.72-3.37,7.68-1.78,12a30.42,30.42,0,0,0,6,9.64l12.93,11.3c1.55-.41,3.64,1.46,5.58,2.1,1,.32,1.28.67,1.34,1.66a294.72,294.72,0,0,1,0,42.3c-.92,11.41-2.25,22.78-2.83,34.22-.56,11.19-.87,22.38-1.93,33.55-.72,7.53-1.46,15.06-2,22.6h4.88q1.22-11.91,2.45-23.81c1.24-12.06,1.55-24.17,2.25-36.26,1-17.3,3.63-34.49,3.41-51.87-.09-7.55-.08-15.11-.48-22.66-.21-3.85-1.18-4.74-5.05-5.23a3.92,3.92,0,0,1-1.36-.51,78.59,78.59,0,0,1-8.64-5.43A36.85,36.85,0,0,1,1472.26,639a8.8,8.8,0,0,1-1-7.4c.61-1.81,1.73-2.6,3.59-1.49,1.28.77,2.57,1.52,3.82,2.34a120,120,0,0,1,10.2,8c1.41,1.17,3,1.6,4.38-.07s.92-3.07-.32-4.44a34.08,34.08,0,0,0-2.5-2.43,88.3,88.3,0,0,1-9.88-9.82,16.63,16.63,0,0,1-3.1-5.06c-.42-1.26-.17-2,1.32-2.26a8.29,8.29,0,0,1,7.61,2.1c2.53,2.39,5,4.9,7.45,7.34,1.28,1.25,2.6,1.68,4.12.28s1.25-2.75.09-4.13c-1.76-2.1-3.59-4.13-5.32-6.26a28.38,28.38,0,0,1-5.48-9.11c-.68-2.11.05-2.87,2.2-2.33a14.22,14.22,0,0,1,6.46,4c1.71,1.69,3.44,3.37,5.19,5,1.2,1.12,2.55,1.57,4.05.57s1.23-2.64.62-4c-.84-1.88-1.92-3.65-2.9-5.47l-.18-.23-1.36-1.69c1.22-.47,1.72.23,2.17,1l.08.13c6.61,7.83,14.58,14.51,19.66,23.65a11,11,0,0,1,1.77,6.29c-.84,11.61,0,23.21.4,34.81.39,11.44,1,22.88,1.7,34.31a600.81,600.81,0,0,0,7.27,66.27c1.56,9.09,2.88,18.23,4.58,27.3h6.29c-.66-3.41-1.17-6.84-1.81-10.26a667,667,0,0,1-9.41-73.84c-1-13.09-1.25-26.21-2.23-39.3a350.23,350.23,0,0,1-.62-36.09c.11-3.91.44-7.91-1.78-11.38-3.67-5.73-7.51-11.35-12.68-15.91a103.4,103.4,0,0,1-8-8.15c-2.57-2.84-5.5-6.21-9.63-5.62C1493.59,596.46,1494,597.64,1494,597.64Z"/><path class="cls-1" d="M905.23,656.94a54.71,54.71,0,0,0-5.32,6.58c-3.05,4.25-4.11,8.8-2.5,13.88.6,1.9,1,3.85,1.63,5.74,4.64,14.2,8.76,28.54,11,43.35,3.06,20.19,6.3,40.35,11.18,60.2.85,3.44,1.73,6.87,2.77,10.26l6.36,0c-1.76-6.95-3.38-13.92-4.77-21-2.89-14.57-5.79-29.14-8.15-43.81-1.57-9.75-3-19.53-5.62-29.08-2.36-8.64-4.82-17.24-7.31-25.84a11.72,11.72,0,0,1,2.26-11.56,145.75,145.75,0,0,1,20-20.39,29.43,29.43,0,0,1,13.43-6.74c1.6-.3,3.91-1.53,4.8,0s-1,3.31-2.19,4.64c-3.89,4.33-7.5,8.88-11.15,13.41a46.39,46.39,0,0,0-3.95,5.73c-.87,1.5-.92,2.93.53,4a2.62,2.62,0,0,0,3.92-.72c.7-.92,1.38-1.87,2-2.84a41.81,41.81,0,0,1,12.06-12.08,27.26,27.26,0,0,1,8.88-3.87,6.79,6.79,0,0,1-.27,1.46c-.53,1.13-1.08,2.24-1.69,3.32A91,91,0,0,1,938,671.49c-1.36,1.36-2.22,3-.5,4.52s3.23.53,4.51-.9c.94-1.05,1.89-2.1,2.81-3.16a84.21,84.21,0,0,1,14-13.08c.57-.42,1.28-1.08,2-.67s.37,1.22.38,1.87c.06,4-2.11,7-4.86,9.45-4,3.62-7.79,7.47-11.59,11.3-1.44,1.46-3.49,2.77-1.62,5.17,1.27,1.64,2.87,1.21,5.48-1.16,5.21-4.75,9.64-10.31,15.23-14.66.14-.46.58-.78.89-.51.61.52.06,1-.32,1.39-3.53,7.79-8.32,14.53-15.88,18.94-2.39,1.4-3.06,3.62-2.66,6.2,1.94,12.47,4,24.91,7.08,37.16,5.23,21.09,12.14,41.7,18.45,62.47.09.28.18.55.29.8l6.45,0a5.83,5.83,0,0,0-.28-2.77c-1.86-5.76-3.79-11.48-5.66-17.23-8.25-25.34-15.46-50.94-19.46-77.36-.54-3.56,0-5.54,3.05-7.46,7-4.5,10.81-11.56,13.67-19.1,1.41-3.72.38-5.77-3.12-7.32-.93-.41-1-.79-.73-1.67a13.5,13.5,0,0,0,.2-6.65c-.64-3-2.08-4.07-5.1-3.8l-2.6.2a14.15,14.15,0,0,0,2.38-6.93c.17-4.3-1.88-5.94-6.06-5-1.39.32-2.67,1.19-4.27,1.06.26-.77.52-1.39.67-2,1.1-4.63-1.42-8-6.15-8.07a22.52,22.52,0,0,0-3.23.2,33.56,33.56,0,0,0-15.9,6.1C922.91,640.63,905.23,656.94,905.23,656.94Z"/><path class="cls-1" d="M1298.86,569.39c1.37,1.86,1.87,4.29,4.07,5.45,1.12-.09,2.05-.39,2-1.78-1.58-12-8.86-7.91-8.86-7.91-.38,1.44-.62,2.32-1,3.76a22.72,22.72,0,0,0,3.22,1.16A2,2,0,0,1,1298.86,569.39Z"/><path class="cls-1" d="M1305.6,631.84c-.08-5.47-1.78-9.89-6.75-12.69-5.77-3.26-7.79-8.49-7.73-14.84.07-7.9,1.61-15.36,2.89-23.09-1.35.36-2.38-.57-3.65-1a123.58,123.58,0,0,0-4.35,22.49c-.7,8.72,1.38,16.36,9.6,21.12.72.41,1.35,1,2,1.42a4.12,4.12,0,0,1,2,3.75c0,3.49.25,7,0,10.46-1.2,19.49-1,39-1.17,58.5-.25,25.31,1.55,50.63-.24,75.94-.53,7.41-.08,14.86-.47,22.29h4.84c.07-6.43,0-12.86.53-19.25,1.63-21.32.76-42.65.81-64,0-16.27.29-32.54.38-48.81C1304.42,653.39,1305.75,642.65,1305.6,631.84Z"/><path class="cls-1" d="M1337.27,586.19c-.55-2.93-1.06-5.88-1.49-8.83l-1.78-1.73a4,4,0,0,0-4.07-.92c-3.34,1.15-8.8,3.07-9.87,3.93l.07.77h0a3.51,3.51,0,0,0,.69,2.52c1.33.74,2.29-.49,3.46-.65,2.33-1.08,4.7-2.1,7-3.27,1.35-.69,1.63-.35,1.72,1,.14,2.23.37,4.45.65,6.67C1334.86,585.19,1336.06,585.71,1337.27,586.19Z"/><path class="cls-1" d="M1362.05,781.06c-2.45-24.05-7.91-47.65-10.68-71.66-1.75-15.19-3.36-30.36-3.58-45.67-.14-10.29-.52-20.58-1.66-30.84-1.4-12.72-4.41-25.14-7-37.62-1.43-.56-2.94-.81-4.17-1.33.44,2.43.92,4.85,1.42,7.27a280.46,280.46,0,0,1,5.84,55.9,515.75,515.75,0,0,0,5.61,69.21c1.31,9.28,3.21,18.48,4.52,27.77,2,14,3.95,28,5,42.13h6.26C1363.31,791.15,1362.56,786.12,1362.05,781.06Z"/><path class="cls-1" d="M1301,581.58c-1.1,2.94-2,6-2.9,9-.24.77-.18,1.55.72,1.86s1.38-.28,1.66-1,.52-1.4.75-2.1a74.76,74.76,0,0,1,7.06-15.84,29,29,0,0,1,8.45-9.32c.52-.35,1.07-1,1.77-.52s.47,1.19.46,1.83a47.45,47.45,0,0,1-1.79,10.25,12.78,12.78,0,0,0,2.67,11.84,20.07,20.07,0,0,1,4,8.44c.3,1.35.72,2.8,2.48,2.45s1.62-1.83,1.35-3.2c-.11-.57-.29-1.12-.45-1.67-1.2-4.07-3.68-7.37-6.37-10.54-.48-.14-.58-.52-.62-1h0a2.1,2.1,0,0,1-.6-1.33,2,2,0,0,1,.47-1.27h0l-.07-.77a5.06,5.06,0,0,1-.06-.53c-.12-1.66.54-3.2.85-4.79a51.84,51.84,0,0,0,1.11-7.6c.08-1.78-.06-3.62-1.73-4.65s-3.57-.49-5.17.44a18,18,0,0,0-3.3,2.6,40.32,40.32,0,0,0-8.25,11.42c-.31.62-.41,1.4-1,1.87C1302.42,577.53,1301.46,580.36,1301,581.58Z"/><path class="cls-1" d="M1320.45,582l-.18,0c0,.43.14.81.62,1,1.2-.43,2.7-.25,3.4-1.69-1.16.16-2.12,1.4-3.46.65l-.38.05Z"/><path class="cls-1" d="M1192.6,597.58c-4.13-.6-9,3-11.55,5.83a103.4,103.4,0,0,1-8,8.15c-5.17,4.56-7,12.18-10.71,17.91-2.23,3.47-1.89,7.47-1.78,11.38a350.23,350.23,0,0,1-.62,36.09c-1,13.09-1.25,26.22-2.23,39.3a667,667,0,0,1-9.41,73.84c-.64,3.41-1.15,6.85-1.81,10.26h6.29c1.7-9.07,3-18.21,4.58-27.3a600.81,600.81,0,0,0,7.27-66.27c.68-11.43,1.31-22.86,1.7-34.31.4-11.6,1.24-23.19.4-34.81-.17-2.3,1.14-4,1.77-6.29,3.86-14,7-14.25,13.61-22.08a48.31,48.31,0,0,0,3.67-4.79c.45-.77,5.53-4.25,6.37.5.92,1.32-1,3.5-1.4,4l-.18.23c-1,1.82-2.86,3.6-3.7,5.48-.61,1.37-1.94,2.16-.3,3.26s2.86.55,4.05-.57c1.76-1.65,3.48-3.32,5.19-5a14.22,14.22,0,0,1,6.46-4c2.14-.54,2.87.22,2.2,2.33a28.38,28.38,0,0,1-5.48,9.11c-1.73,2.12-3.56,4.16-5.32,6.26-1.16,1.38-1.43,2.74.09,4.13s2.85,1,4.12-.28c2.49-2.44,4.91-4.95,7.45-7.34a8.29,8.29,0,0,1,7.61-2.1c1.49.27,1.74,1,1.32,2.26a16.63,16.63,0,0,1-3.1,5.06,88.3,88.3,0,0,1-9.88,9.82,34.08,34.08,0,0,0-2.5,2.43c-1.23,1.37-1.66,2.87-.32,4.44s3,1.24,4.38.07a120,120,0,0,1,10.2-8c1.25-.82,2.54-1.57,3.82-2.34,1.86-1.11,3.72-.42,3.59,1.49s-1.9,2.61-3.21,5c-2.61,4.66-3.77,6.81-8,10-2.74,2-3.9,5-6.87,6.63-.42.23-3.11,2.93-3.49,3.22-2,1.49-4.42,2.39-5.05,5.23-2.05,9.26-.39,15.1-.48,22.66-.21,17.39,2.42,34.57,3.41,51.87.7,12.09,1,24.2,2.25,36.26q1.23,11.91,2.45,23.81h4.88c-.58-7.54-1.32-15.07-2-22.6-1.06-11.16-1.37-22.36-1.93-33.55-.58-11.44-1.92-22.81-2.83-34.22a294.72,294.72,0,0,1,0-42.3c.06-1,.37-1.34,1.34-1.66,1.94-.63,6.28-7,8.07-9l8.18-8.41a30.42,30.42,0,0,0,6-9.64c1.6-4.34,3-4.31.47-8a5.12,5.12,0,0,0-3.81-2.55c-2.06-.15-1.73-1-1-2.33a10.66,10.66,0,0,0,.85-2.33c1.31-4.52-.59-7.67-5.27-8.51a53.71,53.71,0,0,0-5.61-.42c.9-3.37,2.4-6.75-.66-9.74s-6.39-2-9.92-.84c-.16-.77-.27-1.55-.48-2.31l0-.17S1198,598.37,1192.6,597.58Z"/><path class="cls-1" d="M1124,607.47c.45-.77.95-1.47,2.17-1l-1.36,1.69-.18.23-.69-.8Z"/><path class="cls-1" d="M1320.27,582h0l.18,0h0l.38-.05a3.51,3.51,0,0,1-.69-2.52h0a2,2,0,0,0-.47,1.27A2.1,2.1,0,0,0,1320.27,582Z"/><path class="cls-1" d="M1182.69,603.41a80.94,80.94,0,0,1-21.84-14c-2.39-2.15-5.94,1.38-3.54,3.54a85,85,0,0,0,22.85,14.77c2.92,1.28,5.47-3,2.52-4.32Z"/><path class="cls-1" d="M1169.61,614.81c-3.77-.4-7.21-3.46-10.14-5.65a117.22,117.22,0,0,1-9.16-7.69c-2.36-2.18-5.91,1.35-3.54,3.54,6.12,5.65,14.18,13.9,22.83,14.81,3.2.34,3.17-4.66,0-5Z"/><path class="cls-1" d="M1162.31,591.87l12.56-12.53c2.52-2.52,7.81-6,8.18-10,.8-8.52-16.26-5.74-20.52-5.72l-36.89.11c-11.52,0-23.16.39-34-4.14-2.1-.88-3.83,2-2.82,3.67A428.7,428.7,0,0,1,1123,636.93a2.53,2.53,0,0,0,4.18,1.1,238.78,238.78,0,0,0,24.38-30.73c1.79-2.68-2.54-5.19-4.32-2.52a230.86,230.86,0,0,1-23.6,29.72l4.18,1.1a435.68,435.68,0,0,0-34.68-74.82l-2.82,3.67c8.31,3.48,17.18,4.22,26.1,4.32,9.71.12,19.44,0,29.15-.06l16,0,6,0c2.21,0,5.91-.73,8,0q2.08-.59,1.8,1.25l-2.64,2.64-5.29,5.28-10.58,10.55c-2.28,2.28,1.25,5.81,3.54,3.54Z"/><path class="cls-1" d="M1159.41,587.43c-4.43-4.1-9.92-8-16.29-7.35a11.86,11.86,0,0,0-10.64,8.94c-.7,3.13,4.12,4.47,4.82,1.33,2.27-10.09,14.17-3.45,18.57.62,2.36,2.18,5.9-1.34,3.54-3.54Z"/><path class="cls-1" d="M1657.67,796.66c1.35-21.67,3.37-43.78,3.59-65.52.13-12.63-.7-25.22-1.69-37.79-.2-2.6-1.37-4.61-4-5.42-8.38-2.55-14.59-8-19.82-14.77-.46-.31-1.11-.63-.63-1.28.24-.33.74-.12,1,.3,6.45,2.94,12,7.33,18.2,10.74,3.09,1.71,4.74,1.75,5.6-.13,1.27-2.78-1-3.58-2.77-4.66-4.58-2.85-9.14-5.73-13.89-8.32-3.25-1.78-6-4.16-6.91-8.07-.14-.64-.54-1.45-.06-1.91s1.43-.08,2.09.19a84.21,84.21,0,0,1,16.61,9.5c1.15.82,2.31,1.62,3.47,2.43,1.58,1.1,3.3,1.69,4.59-.16s.11-3.27-1.52-4.28a91,91,0,0,1-19.41-15.88c-.84-.92-1.64-1.87-2.41-2.84a6.79,6.79,0,0,1-.6-1.36,27.26,27.26,0,0,1,9.54,1.71,41.81,41.81,0,0,1,14.52,9c.84.8,1.72,1.56,2.62,2.29a2.62,2.62,0,0,0,4-.2c1.17-1.34.8-2.73-.4-4a46.39,46.39,0,0,0-5.17-4.67c-4.6-3.56-9.16-7.16-13.95-10.47-1.48-1-3.74-2.19-3.2-4s3-1,4.66-1.13a29.43,29.43,0,0,1,14.62,3.45,145.75,145.75,0,0,1,24.21,15.22,11.72,11.72,0,0,1,4.87,10.73c-.44,8.94-.85,17.88-1.15,26.83-.33,9.89.52,19.74,1.25,29.59,1.09,14.82,1.63,29.67,2.18,44.51.27,7.17-.2,22.61-.31,29.78h5.94c.22-3.53,1-16.78,1.08-20.32.17-20.44-1.34-40.81-3-61.16-1.23-14.94-.54-29.83.7-44.72.17-2,.12-4,.26-6,.39-5.31-1.69-9.5-5.64-12.93a54.71,54.71,0,0,0-6.7-5.17s-20.28-11.41-23.9-13a32.27,32.27,0,0,0-16.88-2.27,22.52,22.52,0,0,0-3.19.55c-4.58,1.21-6.26,5-4.12,9.27.3.59.69,1.13,1.12,1.82-1.53.5-3-.06-4.4,0-4.29,0-5.9,2.11-4.75,6.25a14.15,14.15,0,0,0,3.91,6.2l-2.57.4c-3,.44-4.15,1.81-4.08,4.88a13.5,13.5,0,0,0,1.73,6.43c.45.8.48,1.18-.33,1.79-3,2.31-3.57,4.54-1.34,7.84,4.52,6.68,9.82,12.67,17.71,15.43,3.37,1.18,4.4,3,4.69,6.56,2.21,26.64,1.09,53.2-1.08,79.77-.49,6-1.11,12.52-1.59,18.55Z"/><path class="cls-1" d="M1635.74,673.76c-.46-.31-1.11-.63-.63-1.28.24-.33.74-.12,1,.3C1635.64,673,1635.79,673.41,1635.74,673.76Z"/><path class="cls-1" d="M1718.44,577.42l.64,1-.35,1.52-.58-.94A2,2,0,0,1,1718.44,577.42Z"/><path class="cls-1" d="M1718.74,579.9c-.11.35-.17,1.1-.45.92-.73-.45-.35-1.21-.13-1.86Z"/><path class="cls-1" d="M933.21,635.2a15.2,15.2,0,0,1,21.37-8c6.3,3.45,9.53,10.54,14.19,15.71,5,5.52,19,12.3,10,20.81-5.1,4.82-12.62,5.79-17.81,10.65-2.35,2.2,1.19,5.73,3.54,3.54,6.86-6.42,19.87-7,22.12-17.88,2.2-10.63-11.25-16.58-16.66-23.59-5.56-7.21-10.69-14.93-20.55-16-9.48-1-17.55,4.77-21,13.38-1.19,3,3.64,4.29,4.82,1.33Z"/><path class="cls-1" d="M950.18,622.44c10.73-16.79,25.09-30.62,39.82-43.88,15.82-14.24,31.78-28.42,49.07-40.87,2.59-1.86.09-6.2-2.52-4.32-17.64,12.7-33.95,27.12-50.09,41.65-15,13.55-29.64,27.73-40.6,44.89-1.74,2.72,2.59,5.23,4.32,2.52Z"/><path class="cls-1" d="M1036.08,536.74a223.18,223.18,0,0,0,30.84,26.57c2.62,1.88,5.12-2.46,2.52-4.32a216.18,216.18,0,0,1-29.82-25.79c-2.24-2.32-5.77,1.22-3.54,3.54Z"/><path class="cls-1" d="M1067.67,562.25a112.87,112.87,0,0,0-21,.7c-3.15.4-3.19,5.4,0,5a112.87,112.87,0,0,1,21-.7c3.21.19,3.2-4.81,0-5Z"/><path class="cls-1" d="M1044,568.43l5.66,11.92c1.38,2.91,5.69.37,4.32-2.52l-5.66-11.92c-1.38-2.91-5.69-.37-4.32,2.52Z"/><path class="cls-1" d="M1050.17,577.52a134.16,134.16,0,0,0-21.09,2.56c-3.15.64-1.82,5.46,1.33,4.82a125.59,125.59,0,0,1,19.76-2.38c3.21-.13,3.22-5.13,0-5Z"/><path class="cls-1" d="M1026.59,583.14c.25,2.88,2.19,4.14,4.67,5.2a13.66,13.66,0,0,1,6.27,5.07c1.77,2.67,6.1.17,4.32-2.52a19.17,19.17,0,0,0-4.8-5.07,16,16,0,0,0-2.76-1.6c-.35-.16-2.69-1-2.69-1.09-.28-3.18-5.28-3.21-5,0Z"/><path class="cls-1" d="M1039.67,592.49a119.61,119.61,0,0,0-23.64,2.35c-3.15.63-1.82,5.45,1.33,4.82a112.71,112.71,0,0,1,22.31-2.18c3.22,0,3.22-5,0-5Z"/><path class="cls-1" d="M1012.82,599q2.91,8.44,6.29,16.71c1.2,2.94,6,1.65,4.82-1.33q-3.38-8.26-6.29-16.71c-1-3-5.87-1.72-4.82,1.33Z"/><path class="cls-1" d="M1021.69,614.93q-9,.48-18,.19c-3.22-.11-3.21,4.89,0,5q9,.3,18-.19c3.2-.17,3.22-5.17,0-5Z"/><path class="cls-1" d="M998.86,617.95a54,54,0,0,0,6.82,14.36c1.79,2.65,6.12.16,4.32-2.52a49.3,49.3,0,0,1-6.32-13.17c-.94-3.07-5.77-1.76-4.82,1.33Z"/><path class="cls-1" d="M1009.18,632.65a55.24,55.24,0,0,1-18.27-2.11c-3.1-.89-4.42,3.93-1.33,4.82a59.55,59.55,0,0,0,19.6,2.29c3.2-.16,3.22-5.16,0-5Z"/><path class="cls-1" d="M986.71,633.85a96.73,96.73,0,0,1,4.2,15.45c.58,3.16,5.4,1.82,4.82-1.33a96.73,96.73,0,0,0-4.2-15.45c-1.09-3-5.92-1.71-4.82,1.33Z"/><path class="cls-1" d="M993.64,647.93,978.13,646c-3.19-.39-3.16,4.61,0,5l15.51,1.92c3.19.39,3.16-4.61,0-5Z"/><path class="cls-1" d="M1295.72,569.17c-3.64-1.24-7.17-2.62-9.84-3.68l-1.94-.75c-1.49-.57-3-1.16-4.42-1.83-2.61-1.26-4.27-2.46-4.91-3.52a6.92,6.92,0,0,1-.21-.9A7.53,7.53,0,0,0,1274,557c-3.06-7.58-13.3-11.35-20.95-10.11-6.23,1-10.17,5.21-10.54,11.23a2.79,2.79,0,0,0,0,.63,2.64,2.64,0,0,0,2,2.5l10.25,2.85c.53.15,1.09.28,1.65.41,1.4.32,3.31.77,3.73,1.47a2,2,0,0,1,0,1.36c-.09.33-.17.67-.25,1-.54,2.23-.82,2.81-2.16,3a11.29,11.29,0,0,1-2.23-.68c-.51-.2-1-.38-1.42-.5l-9.45-2.66a2.82,2.82,0,0,0-2.55-.58,2.61,2.61,0,0,0-2,2.77,2.78,2.78,0,0,1,0,.3,2.75,2.75,0,0,0-1,.83,8.48,8.48,0,0,0-1.29,8.26c2,5.54,9.3,9.51,13.8,10.56a17.62,17.62,0,0,0,4,.48,16.19,16.19,0,0,0,9.38-3,20,20,0,0,0,2.56-2.25,14.45,14.45,0,0,1,2.27-2c2.92-1.82,6.43-.83,10.15.22.85.24,1.69.48,2.52.68l.17,0c5.12,1.42,10.35,2.77,15.4,4.07l2.67.69.65-1.64.55-1.36.86-2.12-3.25-.84c-5.15-1.33-10.47-2.7-15.67-4.14l-.3-.08h-.06c-.81-.21-1.72-.5-2.68-.81-3.17-1-6.75-2.16-9.88-1.53a10.66,10.66,0,0,0-5.11,3.11l-.62.57c-4.06,3.63-7.54,5.67-12.34,4.58-2.89-.66-7.82-3.19-9.56-6.23a3.79,3.79,0,0,1-.57-2.16,7.73,7.73,0,0,0,2-2.69l6.25,1.76c.59.17,1.27.41,2,.67a16.3,16.3,0,0,0,5.65,1.32c4.54-.09,5.57-4.08,6.25-6.72.08-.29.15-.58.23-.86s.16-.56.24-.83c.67-2.25,1.67-5.65-2.22-7.7a21.85,21.85,0,0,0-5.53-1.71c-.8-.17-1.56-.34-2.23-.52l-7.23-2c.72-2.56,2.69-4,5.87-4.39,6.17-.7,13.66,3.19,15.12,7.84.13.41.23.78.32,1.12a7,7,0,0,0,2.85,4.53,22.71,22.71,0,0,0,6.32,2.86c.9.3,1.75.58,2.49.89a214.27,214.27,0,0,0,22.18,7.54l1.82.52.62-1.79c.15-.43.29-.86.43-1.29l.63-2-2-.55C1301.49,571,1298.48,570.11,1295.72,569.17Z"/><path class="cls-1" d="M1382.51,585.88c-2-5.54-9.3-9.51-13.8-10.56a16.3,16.3,0,0,0-13.4,2.53,20,20,0,0,0-2.56,2.25,14.38,14.38,0,0,1-2.27,2c-2.92,1.83-6.43.83-10.15-.22-.85-.24-1.69-.48-2.49-.67l-.22-.05-4.88-1.37c-4.69-1.32-10-2.82-13.67-3.77l-.84-.42-.53,2.21c-.08.48.05,1.18,0,1.66l-.35,1.56.51.34c3.61.93,8.9,2.42,13.56,3.74l5,1.41.34.1h.06c.81.21,1.72.5,2.68.81,3.17,1,6.75,2.16,9.88,1.53a10.65,10.65,0,0,0,5.11-3.11l.62-.56c4.06-3.63,7.54-5.67,12.34-4.58,2.89.66,7.82,3.19,9.56,6.23a3.78,3.78,0,0,1,.57,2.16,7.73,7.73,0,0,0-2,2.69l-6.25-1.76c-.59-.17-1.27-.41-2-.67a16.82,16.82,0,0,0-5.65-1.32c-4.54.09-5.57,4.08-6.25,6.72-.08.29-.15.58-.23.86s-.16.56-.24.83c-.67,2.25-1.67,5.65,2.22,7.7a21.82,21.82,0,0,0,5.53,1.72c.8.17,1.56.34,2.23.52l7.23,2c-.72,2.56-2.69,4-5.87,4.39-6.17.71-13.66-3.19-15.12-7.84-.13-.41-.23-.78-.32-1.12a7,7,0,0,0-2.85-4.53,22.73,22.73,0,0,0-6.33-2.86c-.9-.3-1.74-.58-2.49-.89-2-.83-3.28-1.37-4.24-1.79a48.13,48.13,0,0,0-7.48-2.64l-1.8-.53-.47,1.27a1.8,1.8,0,0,0-2.28,1.32,1.85,1.85,0,0,0,.87,2.28l0,.1.45.13a5.06,5.06,0,0,0,.52.21c2.85,1,5.89,2.1,9.84,3.68l1.94.75c1.49.57,3,1.16,4.43,1.83,2.61,1.26,4.27,2.46,4.91,3.52a7.12,7.12,0,0,1,.2.9,7.61,7.61,0,0,0,.37,1.44c2.68,6.63,10.84,10.34,18,10.34a18.75,18.75,0,0,0,3-.23c6.23-1,10.17-5.21,10.54-11.22a2.75,2.75,0,0,0,0-.64,2.64,2.64,0,0,0-2-2.5l-10.25-2.85c-.53-.15-1.08-.28-1.65-.41-1.4-.32-3.31-.77-3.73-1.47a2,2,0,0,1,0-1.36c.09-.33.17-.66.25-1,.54-2.23.82-2.81,2.16-3h0a10.4,10.4,0,0,1,2.2.68c.51.2,1,.38,1.42.5l9.45,2.66a2.81,2.81,0,0,0,2.56.58,2.6,2.6,0,0,0,1.95-2.77,2.83,2.83,0,0,1,0-.3,2.75,2.75,0,0,0,1-.83A8.48,8.48,0,0,0,1382.51,585.88Z"/><path class="cls-1" d="M1506.35,566.35q9.35-8.21,18.33-16.83c2.36-2.26-1.23-5.85-3.58-3.58q-9,8.62-18.33,16.83c-2.46,2.16,1.14,5.73,3.58,3.58Z"/><path class="cls-1" d="M1523.1,550.18c2.79.24,5.22-.82,7.58,1.24,1.46,1.28,2.44,3.26,3.59,4.82,2.35,3.17,5,6.08,7.65,9l18.55,20.48c2.19,2.42,5.77-1.17,3.58-3.58-7.35-8.11-14.84-16.11-22-24.36-2.94-3.37-5.19-8-8.7-10.76-3.25-2.58-6.43-1.58-10.22-1.91-3.25-.28-3.23,4.79,0,5.07Z"/><path class="cls-1" d="M1561.08,586.43c1.48,1,1.27,4,.54,5.37a15.5,15.5,0,0,1-2.43,3,37,37,0,0,1-5.94,5.35c-3.65,2.42-8.76,2.26-12.86,3.87-3,1.18-1.69,6.08,1.35,4.89,3.78-1.49,7.93-1.51,11.65-3s7.19-5.15,9.91-8.07c4.25-4.58,6.56-11.79.35-15.78-2.75-1.77-5.3,2.62-2.56,4.38Z"/><path class="cls-1" d="M1512.17,601.85c1.71-2,3.44-3.94,5.29-5.8a2.57,2.57,0,0,0-.51-4,31.33,31.33,0,0,0-4.8-2.58c-.76-.32-4.36-1.17-4.58-1.65v2.56c2.33-3.44,6.09-.11,8.85.51a6,6,0,0,0,4.51-.74,2.56,2.56,0,0,0,.91-3.47c-1.4-2.17-17.2-20.24-16.67-20.68,2.5-2.1-1.1-5.67-3.58-3.58-3.7,3.1.57,8.33,2.68,11.09,4.16,5.46,9.46,9.94,13.2,15.74l.91-3.47c-1.12.6-3.88-1.54-5.11-1.84a9.54,9.54,0,0,0-3.47-.11c-2.24.3-5.23,1.48-6.33,3.6a3.46,3.46,0,0,0,.8,4.54c.94.79,2.4.91,3.51,1.29a30.78,30.78,0,0,1,6.64,3.17l-.51-4c-1.85,1.85-3.58,3.81-5.29,5.8-2.12,2.46,1.45,6.06,3.58,3.58Z"/><path class="cls-1" d="M1538.79,604.56c-4.52,3.93-9,7.86-13.41,11.94-2.39,2.23,1.2,5.81,3.58,3.58,4.38-4.08,8.89-8,13.41-11.94,2.47-2.14-1.13-5.72-3.58-3.58Z"/><path class="cls-1" d="M1524.07,546.7l-6.13-7.69c-1.16-1.45-2.6-4.05-4.69-4.34-1.85-.25-3.52,1.41-4.86,2.44l-7.69,5.92c-3.27,2.52-6.21,4.32-5.07,9,1.29,5.27,6.84,10,10.19,13.93,2.11,2.49,5.68-1.11,3.58-3.58-1.68-2-3.38-3.95-5-5.95q-1.48-1.68-2.81-3.5-1.38-3.95,1.7-5.49a38.93,38.93,0,0,1,10.93-8.06h-2.56c3.34,2.44,6.27,7.7,8.85,10.94,2,2.55,5.6-1.06,3.58-3.58Z"/><path class="cls-1" d="M1507.11,541.5l-5.89-6.78c-1.61-1.85-3.12-4.15-5.15-5.53a2.54,2.54,0,0,0-2.56,0c-2.83,1.48-5.93,4.67-3.69,7.82,1.37,1.93,3.48,3.5,5,5.34a52.73,52.73,0,0,1,4.66,6.76c1.66,2.81,6,.26,4.38-2.56a59.88,59.88,0,0,0-4.75-6.93q-1.38-1.73-2.89-3.35c-.49-.53-2.16-1.76-2.32-2.36l-.26,2a6.11,6.11,0,0,1,2.44-2.31h-2.56c1.9,1.28,3.46,4,5,5.71l5.05,5.81c2.14,2.47,5.72-1.13,3.58-3.58Z"/><path class="cls-1" d="M1737.43,580.38c-4.47,8.17-8.77,16.43-13.6,24.39-1.19,2-2.32,4.43-3.86,6.14-1.87,2.07-2.67,2.06-4.71,1.54-4.33-1.1-9.07-4.51-13-6.6s-7.76-4.22-11.6-6.4c-2.13-1.21-5-2.29-6.43-4.32-2-2.81.11-5.3,1.54-8,4.2-7.86,8.33-15.75,12.8-23.46,1.62-2.79-2.7-5.31-4.32-2.52-3,5.16-5.87,10.39-8.67,15.66-2.36,4.45-6.49,9.73-7.28,14.77-.59,3.78,1.31,6.89,4.29,9,5.24,3.7,11.48,6.57,17.14,9.58,4.61,2.45,9.28,5.16,14.09,7.18,3.14,1.32,6.27,1.09,8.76-1.45,3.94-4,6.71-10.39,9.48-15.28,3.32-5.85,6.46-11.81,9.69-17.71,1.54-2.82-2.77-5.35-4.32-2.52Z"/><path class="cls-1" d="M1709.89,570.65A193.1,193.1,0,0,0,1699,591.1c-.73,1.6-.79,2.78-2.12,2.94l-2.73-1.41q-2.4-.68-.74-.85,1.44-.09,1.61-1.88l2-3.46,3-5.19,5.9-10.38c1.31-2.31,3.5-5,3.16-7.87-.5-4.11-5.45-6.49-8.92-7.62-3.07-1-4.38,3.83-1.33,4.82,1.23.4,4.21,1.41,4.81,2.72.81,1.77-1.22,4-2,5.43l-6.89,12.11c-1.94,3.42-5,7.22-6.16,11-.66,2.13-.19,3.29,1.49,4.63,4.17,3.33,9.55,5.59,12.25,0a257.76,257.76,0,0,1,12-22.9c1.68-2.75-2.64-5.27-4.32-2.52Z"/><path class="cls-1" d="M1740.85,579.48c-4.1-2.32-6.43-5.58-11.4-6.43-2.42-.41-7.29-.9-8.3,2.13-.92,2.75,2.5,6.66,5.27,6.61q1-2.23.22-.75l-1,1.68-2.39,4.19-5,8.73c-.59,1-3,6.81-4,7.06-.13,0-4.64-2.32-4.88-2.55l-1,.36,1.49-2.49,10.41-17.4c1.87-3.13,5.26-6.55,2.56-10-1.41-1.81-3.12-3.58-4.57-5.44-2-2.54-5.48,1-3.54,3.54,1,1.32,3.95,3.82,4.33,5.34-.49-2-1,.61-1.61,1.6l-2.48,4.14-5.45,9.12c-1.77,3-4,6-5.45,9.12a4.69,4.69,0,0,0-.6,3.5c1,3.09,7.82,5.52,10.73,5.87,4.11.51,5.39-3.87,7.1-6.87,3.11-5.46,6.29-10.89,9.35-16.38,1.27-2.29,2.3-6.34-1.71-6.85l-1.18-.31q-1.54,1.31.69,1.05c1.31.93,3.44.91,4.87,2.16a28.11,28.11,0,0,0,5,3.63c2.8,1.59,5.33-2.73,2.52-4.32Z"/><path class="cls-1" d="M1701.54,608.17c-6.57,12.95-11.7,26-19.84,38.12-1.8,2.68,2.53,5.18,4.32,2.52,8.14-12.12,13.26-25.17,19.84-38.12,1.45-2.86-2.86-5.4-4.32-2.52Z"/><path class="cls-1" d="M1693.12,604.59c-3,6.1-5.86,12.47-9.91,18s-9.1,10.49-13.62,15.67c-2.11,2.42,1.42,6,3.54,3.54,4.65-5.33,9.7-10.41,13.94-16.07s7.26-12.24,10.37-18.58c1.41-2.88-2.9-5.41-4.32-2.52Z"/><path class="cls-1" d="M1700.08,554.77c-2.91-.79-5.82-1.75-8.87-1.76-3.58,0-7,1.09-10.4,2.2-3,1-1.74,5.84,1.33,4.82s6-2.05,9.07-2c2.57,0,5.08.91,7.54,1.58,3.11.85,4.44-4,1.33-4.82Z"/><path class="cls-1" d="M1681.1,560.76c-.27,0,1.42,1.35,1.78,1.53a18.91,18.91,0,0,0,3.82,1.22,27.84,27.84,0,0,0,9.61,1c3.18-.3,3.21-5.3,0-5a25.94,25.94,0,0,1-9.92-1.26c-2-.6-3-2.61-5.29-2.48-3.2.17-3.22,5.17,0,5Z"/><path class="cls-1" d="M1720.48,568.17a12,12,0,0,0-10-6.35c-3.21-.18-3.2,4.82,0,5a6.89,6.89,0,0,1,5.72,3.87c1.48,2.86,5.8.33,4.32-2.52Z"/><path class="cls-1" d="M1710.61,561.79l-2.61-.14a2.52,2.52,0,0,0-2.5,2.5,2.56,2.56,0,0,0,2.5,2.5l2.61.14a2.52,2.52,0,0,0,2.5-2.5,2.56,2.56,0,0,0-2.5-2.5Z"/><path class="cls-1" d="M1702.72,566.42c-.63,2.83,1.27,4.46,3.59,5.56,2,.93,3.49,2.28,5.75,2.42,3.21.21,3.2-4.79,0-5-.83-.05-1.79-.94-2.47-1.34-.52-.3-1.07-.5-1.61-.77-.06,0-.36-.22-.42-.23-.62-.14.36-1,0,.68.69-3.14-4.12-4.47-4.82-1.33Z"/><path class="cls-1" d="M673.83,722.84c-2.32-12.06-5-24-6.83-36.2-1.65-10.92-2.37-22-4.7-32.78a6,6,0,0,1,.5-4.25c2.38-4.83,1.24-8.57-3.28-11.42a2.61,2.61,0,0,1-1.31-1.69c-1.14-5-3.48-9.47-5.31-14.17-7.24-18.55-21.07-31.27-37.22-41.89a12.35,12.35,0,0,0-8-2.4c-1.25.12-1.51-.53-1.81-1.5-.72-2.29-1.46-4.58-2.36-6.8-4.37-10.69-12.48-13.94-23.1-9.33a25.36,25.36,0,0,0-5.91,3.66,41.27,41.27,0,0,0-9.25,11.32c-7.4,12.51-12.54,26-16.46,39.9a257.39,257.39,0,0,0-8.7,48.08c-.54,6.36-1.72,12.66-2.16,19-.8,11.67-1.21,23.36-1.87,35-.76,13.67-1.7,27.33-1.88,41-.17,12.59-.47,25.18-.59,37.77h5.13c.75-19.79.11-39.61,1.55-59.37,1.61-22.25,2.29-44.56,4.67-66.76,1.77-16.49,3.8-32.91,7.64-49.06a134.83,134.83,0,0,1,7.63-22.31c.47,3.22.92,6.44,1.42,9.66.41,2.64,2.16,5.19,2.15,7.51,0,2-2.29,4.26-3.23,6.65-4.74,12.11-4.41,24.69-3.76,37.32a16.18,16.18,0,0,1-.53,5.62c-.65,2.2-1.13,4.59,1.14,6.38.66.52.47,1.38.59,2.09,2.53,15.07,4.29,30.24,5.86,45.44,1.45,14,4.29,27.7,7.2,41.43.89,4.22,1.45,8.5,2.14,12.76.56,3.45,1.94,4.72,5.5,4.69,2.51,0,5,.44,7.44.61.89.06,1.54.21,1.6,1.39.28,5.35,1,10.66,1.72,16h4.58q-1.46-7.62-2.95-15.24c-.26-1.31-.24-1.87,1.43-1.9,8.88-.2,17.77-.45,26.64-.89,16.08-.8,30.17-6.46,42-17.58a7.1,7.1,0,0,1,1.79-1.3c5.29-2.47,9-6.75,12.5-11.17a8.83,8.83,0,0,0,1.8-8C675.82,734.45,674.95,728.62,673.83,722.84Zm-18.23-80.41c.3,1.75.41,3.65,2,5,.75.62.47,1.35-.13,1.94a10.16,10.16,0,0,1-1.87,1.63c-9.19,5.3-18.29,10.89-28.92,12.89-5.29,1-10.7,1.4-14.44,1.86-16.63,1.44-31.66.72-46.68.78-1.74,0-2.29-1.86-3.91-1.69a3.34,3.34,0,0,1,.46-1.29,23.67,23.67,0,0,1,4.62-5.2,49,49,0,0,1,9.73-6.45c20.06-10.31,41.21-15.57,63.89-13.72a133.25,133.25,0,0,1,13.24,2.24A2.19,2.19,0,0,1,655.61,642.43Zm-48.42-30.28a38.63,38.63,0,0,0,1.73-25.56c-.49-1.82-1-3.63-1.6-5.71a15.15,15.15,0,0,1,8.34,3.18,110.57,110.57,0,0,1,25.79,24.7c6.14,8.18,9,17.92,12.94,27.65-22.82-4.87-44.63-3.23-65.84,5.34-1.25.18-.88-.93-1.2-1.49-.52-6.62-1-13.24-1.58-19.86-.11-1.3-.32-2.11,1.57-1.93s3.12-1.3,3.9-3a26,26,0,0,0,2-9.08c1.38,2.37,2.54,4.43,3.76,6.45s2.44,3.66,5,3.42S606.24,614.44,607.19,612.16Zm-40-29.53c3.89-6.19,7.15-12.8,14-16.39a18.46,18.46,0,0,1,7.6-2.13c3.23-.18,6.17,1,7.28,3.81,4.53,11.52,9.85,23,7.3,35.93-.33,1.67-.86,3.31-1.43,5.48A54.33,54.33,0,0,1,594.71,594a79.42,79.42,0,0,1-1.74-9.53c-.25-1.66-.84-3-2.63-3.07s-2.67,1.06-2.83,2.79a5,5,0,0,1-.11.94c-3.87.12-1.15,2.28-.85,3.27,1.88,6.13,3.55,12.28,3.07,18.78a14.88,14.88,0,0,1-2.21,7.25c-3.35-7.65-4.24-15.45-4.92-23.29-.09-1.07-.1-2.16-.27-3.22-.23-1.5-.92-2.9-2.62-2.74s-2.41,1.47-2.28,3.25c.47,6.12.88,12.25,1.31,18.38.11,1.57.22,3.15.29,4.72a4,4,0,0,1-.68,2.91c-2-1.93-2.24-4.48-2.52-6.86-.72-6.1-1.16-12.23-1.74-18.34a15.83,15.83,0,0,0-.69-4.41c-.55-1.39-1.52-2.25-3.05-2s-2.28,1.41-2.18,3.09q.6,9.81,1.1,19.63c.13,2.63.39,5.31-1.57,7.84-1.47-2.46-1.61-5.1-2-7.62-.47-3-.53-6.12-1-9.16C563.9,591.67,564.34,587.09,567.15,582.62Zm-7.32,60.67c.14-7.64,2.32-14.87,4.52-22.08.55-1.79,1.18-3.43,3.64-3.75,2-.27,3.11-2.3,4.32-4.15,2.58,5.72,5,6.82,9.58,4.45-.41,6.39,0,12.68,0,19,0,2.18-.56,4.43.74,6.54.69,1.13-.74,1.07-1.22,1.28a83.84,83.84,0,0,0-13.85,7.27,43.79,43.79,0,0,0-8.09,7.23C559.63,653.33,559.74,648.31,559.83,643.29Zm112.51,101.2a37.73,37.73,0,0,1-5.42,6.8c-1.2,1.22-2.19,2.73-4.29,1.34-.67-.44-1.62,0-2.31.56-1,.76-2,1.47-2.94,2.29-11.47,10.16-24.76,15.71-40.15,16.24-8.63.29-17.25.94-25.87,1.18-3.78.1-7.57-.46-11.36-.61-1.08,0-1.16-.64-1.3-1.4-4.12-23-9.57-45.8-11.59-69.18-.85-9.85-3.34-19.44-5.59-29.06-.34-1.44-.54-2.92-.88-4.84,4.29,2.9,8.79,2.6,13.11,2.74,16.43.52,32.85.92,49.24-1.08a58,58,0,0,0,19.46-5.7c5.68-2.87,11.4-5.65,16.73-9.49a115.86,115.86,0,0,1,2.11,14.94,514.93,514.93,0,0,0,7.56,51.46c1.37,7.08,1.88,14.32,4,21.25A3,3,0,0,1,672.34,744.49Z"/><path class="cls-1" d="M829.07,541.38c-6.81-4-13.7-7.79-20.53-11.71a51.36,51.36,0,0,0-10.07-4.85c-7.88-2.46-8-2.27-12.38,3.68-7,9.48-13.33,19.47-17.32,30.67-.65,1.81-2.79,1.21-2.86,2.72s1.05,2.63.49,4.4a56.69,56.69,0,0,0-2.22,20.91c.1,1.5,0,3.43,1,4.27,2.45,2,1.26,4,.63,6.17-.24.81-.36,1.66-.53,2.48-3.53-1.15-6.89-2.12-9.92.84s-1.56,6.37-.66,9.74a53.75,53.75,0,0,0-5.61.42c-4.67.84-6.57,4-5.27,8.51a10.68,10.68,0,0,0,.85,2.33c.74,1.29,1.06,2.18-1,2.33a5.12,5.12,0,0,0-3.81,2.55c-2.54,3.72-3.37,7.68-1.78,12a30.43,30.43,0,0,0,6,9.64c.87,1,1.19,1.48.15,2.76a20.67,20.67,0,0,0-4.4,13.94c.13,4.85,4.21,7.09,8.61,5a15.28,15.28,0,0,0,5.72-5.41c1.15-1.64,1.65-4.64,2.86-5,1.55-.41,3.64,1.46,5.58,2.1,1,.32,1.28.67,1.34,1.66a294.77,294.77,0,0,1,0,42.3c-.92,11.41-2.25,22.78-2.83,34.22-.56,11.19-.87,22.38-1.93,33.55-.72,7.53-1.46,15.06-2,22.6h4.88q1.22-11.91,2.45-23.81c1.24-12.06,1.55-24.17,2.25-36.26,1-17.3,3.63-34.49,3.41-51.87-.09-7.55-.08-15.11-.48-22.66-.21-3.85-1.18-4.74-5.05-5.23a3.92,3.92,0,0,1-1.36-.51,78.59,78.59,0,0,1-8.64-5.43A36.85,36.85,0,0,1,744.11,639a8.8,8.8,0,0,1-1-7.4c.61-1.81,1.73-2.6,3.59-1.49,1.28.77,2.57,1.52,3.82,2.34a120,120,0,0,1,10.2,8c1.41,1.17,3,1.6,4.38-.07s.92-3.07-.32-4.44a34.17,34.17,0,0,0-2.5-2.43,88.27,88.27,0,0,1-9.88-9.82,16.64,16.64,0,0,1-3.1-5.06c-.42-1.26-.17-2,1.32-2.26a8.29,8.29,0,0,1,7.61,2.1c2.53,2.39,5,4.9,7.45,7.34,1.27,1.25,2.6,1.68,4.12.28s1.25-2.75.09-4.13c-1.76-2.1-3.59-4.13-5.32-6.26a28.38,28.38,0,0,1-5.48-9.11c-.68-2.11.05-2.87,2.2-2.33a14.22,14.22,0,0,1,6.46,4c1.71,1.69,3.44,3.37,5.19,5,1.2,1.12,2.55,1.57,4.05.57s1.23-2.64.62-4c-.84-1.88-1.92-3.66-2.9-5.47l.69-.8c6.61,7.83,14.58,14.51,19.66,23.65a11,11,0,0,1,1.77,6.29c-.84,11.61,0,23.21.4,34.81.39,11.44,1,22.88,1.7,34.31a600.77,600.77,0,0,0,7.27,66.27c1.56,9.09,2.88,18.23,4.58,27.3h6.29c-.66-3.41-1.17-6.84-1.81-10.26a667,667,0,0,1-9.41-73.84c-1-13.09-1.25-26.21-2.23-39.3a350.32,350.32,0,0,1-.62-36.09c.11-3.91.44-7.91-1.78-11.38-3.67-5.73-7.51-11.35-12.67-15.91a103.36,103.36,0,0,1-8-8.15c-2.57-2.84-5.47-5.42-9.63-5.62-1,0-1-.45-.85-1.25.28-1.69.35-3.35-1.71-4.14-.52-.2-.51-.82-.55-1.31a55.37,55.37,0,0,1,2.06-22.34c7.34,3.89,14.33,8,20.3,13.66a73.85,73.85,0,0,0,15.56,11.14,47.28,47.28,0,0,1,7.51,4.88c.45.38,1.36.7.76,1.53-2.57,3.58-5.06,7.27-10,7.92a14.92,14.92,0,0,1-8.88-1.74c-1.75-.88-3.64-1.38-5.27.34a1.9,1.9,0,0,0-.53,2.46,1.72,1.72,0,0,0,2.14.82,3.54,3.54,0,0,1,2.65.24c8.48,4.07,16.32,1,21.18-5.5,1.12-1.49,1.94-3.28,4-3.88a1.66,1.66,0,0,0,1.07-1.82c-.4-1.78.66-3,1.4-4.35,2.6-4.73,5.26-9.42,7.81-14.18a129.15,129.15,0,0,0,9.06-20.71c.85-2.6,1.47-5.49-.45-7.61C835.36,546.78,832.7,543.49,829.07,541.38ZM748.64,652.91a10.58,10.58,0,0,0,1.52,1.29c3.63,3,3.64,3,1.26,7.23a17.14,17.14,0,0,1-3.66,4.68c-.9.77-1.94,1.48-3.16,1s-1-1.77-1.15-3.26c.32-3.29.69-7,2.43-10.39C746.54,652.17,747.37,651.38,748.64,652.91Zm34-83.71c-3.81-1.83-7.66-3.59-11.4-5.55-.9-.47,0-1.55.22-2.26,2.54-7.35,6.47-14,10.53-20.56,2.53-4.09,4.95-8.27,8.2-11.87.65-.72,1.24-1.75,2.34-1.65s2.57,0,3.17,1c.46.7-.66,1.58-1.15,2.3-6.57,9.62-11.36,20.27-17.64,30.06a8.65,8.65,0,0,0-.8,1.82,1.24,1.24,0,0,0,.63,1.48.92.92,0,0,0,1.33-.2c1.35-1.9,3.86-3,4-5.76a2,2,0,0,1,.42-.89c5.14-7.74,8.9-16.32,14.29-23.92a6.61,6.61,0,0,0,.81-1.8c.67-2.09,1.77-2.46,3.74-1.37,1.53.85,2.16,1.29,1.12,3.23-5.11,9.51-11.15,18.49-16.19,28-1.19,2.26-2.72,4.4-2.85,7.09A.89.89,0,0,1,782.61,569.2Zm7.84,5.4L784,569.9c2.55-.51,5.64-4.08,5.77-6.82a6.05,6.05,0,0,1,.88-2.76c4.86-8.88,10.48-17.34,14.58-26.62.48-1.08.91-1.11,1.81-.53,4.29,2.74,4.32,1.42,1.92,6.33-4.75,9.71-10.31,19-15.7,28.3C792,569.85,790.78,571.9,790.45,574.6Zm44.62-18a117.22,117.22,0,0,1-8.4,19.38c-2.68,5.06-5.59,10-8.32,15-.73,1.35-1.24,1.58-2.51.51-2.95-2.47-6.47-4-9.83-5.85a83,83,0,0,1-11.59-7.74c-1.09-.84-1.29-1.31-.18-2.39a33.89,33.89,0,0,0,5-7.12c.37-.62.89-1.28-.07-1.87a1.13,1.13,0,0,1-.51-1.39A201.78,201.78,0,0,0,813.3,537c5.74,2.29,10.66,5.8,15.53,9.37,1.42,1,1.69,2.17.67,3.91-4.35,7.45-8.51,15-12.73,22.54a43.36,43.36,0,0,0-3.81,7.81c-.5,1.54-.34,2.93,1.2,3.59,1.79.76,2.26-.83,2.76-2,3.59-8.59,8.63-16.45,12.54-24.89a64.37,64.37,0,0,0,3-7.08C835.88,552.08,836.26,552.85,835.07,556.59Z"/><path class="cls-1" d="M164.4,776.17c-8.07-25.4-15.11-51-18.93-77.49-.52-3.57.08-5.54,3.11-7.44,7.07-4.45,10.89-11.48,13.8-19,1.44-3.71.42-5.77-3.07-7.34-.92-.42-1-.8-.72-1.68a13.5,13.5,0,0,0,.25-6.65c-.62-3-2.05-4.09-5.07-3.84l-2.6.18a14.15,14.15,0,0,0,2.42-6.92c.2-4.29-1.84-6-6-5-1.4.31-2.67,1.17-4.27,1,.27-.77.53-1.38.69-2,1.13-4.62-1.36-8-6.1-8.11a22.54,22.54,0,0,0-3.23.18,38.07,38.07,0,0,0-15.94,6c-1.05.66-1.58,1.14-2.21-.53-5.43-14.23-10.58-28.57-16.67-42.54-.69-1.57-.65-2.4,1.16-2.84,4.38-1.07,8.37-3.16,12.46-5a6.69,6.69,0,0,0,4.28-7.58,29.33,29.33,0,0,0-.83-3.89,283.25,283.25,0,0,0-11-32.21c-1.18-2.83-2.48-3.88-5.61-3.81a35.22,35.22,0,0,0-9.48,1.93c-11,3.35-21.29,8.4-32.09,12.21a149,149,0,0,0-17.27,7.35,2.44,2.44,0,0,0-1.1,1.55c-1.07,2.69-.54,5.35-.06,8a135.69,135.69,0,0,0,7.51,24.94c2.08,5.36,7.6,7.83,10.45,12.55a2.06,2.06,0,0,0,2.75.49c3.44-2.22,7.68-2.49,11.11-4.8a45.62,45.62,0,0,1,7.16-3.47c1.86-.82,2.61-.56,3.25,1.48C87.91,619,94.4,635.72,99.09,653a2.75,2.75,0,0,1-.76,3.07A54.7,54.7,0,0,0,93,662.62c-3.08,4.23-4.17,8.77-2.6,13.86.59,1.9,1,3.86,1.59,5.75,4.55,14.24,8.56,28.6,10.71,43.43,2.92,20.21,6,40.39,10.77,60.28.82,3.45,1.69,6.88,2.69,10.27h6.36c-1.71-7-3.29-13.95-4.63-21-2.79-14.59-5.59-29.18-7.85-43.87-1.5-9.76-2.88-19.55-5.42-29.12-2.3-8.65-4.7-17.27-7.14-25.89a11.72,11.72,0,0,1,2.34-11.55A145.73,145.73,0,0,1,120,644.54a29.43,29.43,0,0,1,13.48-6.64c1.6-.29,3.92-1.5,4.8.05s-1,3.3-2.22,4.63c-3.92,4.3-7.56,8.83-11.25,13.33a46.38,46.38,0,0,0-4,5.71c-.88,1.49-.94,2.93.5,4a2.62,2.62,0,0,0,3.93-.69c.71-.92,1.39-1.86,2-2.82a41.81,41.81,0,0,1,12.14-12,27.26,27.26,0,0,1,8.91-3.81,6.78,6.78,0,0,1-.28,1.46c-.53,1.12-1.1,2.23-1.71,3.31A91,91,0,0,1,131,670.86c-1.37,1.35-2.24,3-.53,4.51s3.22.55,4.51-.87c.95-1,1.9-2.09,2.84-3.15a84.21,84.21,0,0,1,14.06-13c.58-.41,1.29-1.07,2-.65s.36,1.22.37,1.87c0,4-2.16,6.95-4.93,9.41-4,3.59-7.84,7.41-11.67,11.22-1.45,1.45-3.51,2.74-1.66,5.16,1.26,1.65,2.86,1.23,5.49-1.13,5.24-4.71,9.71-10.24,15.33-14.55.49.1.44.55.56.88-3.58,7.77-8.42,14.47-16,18.83-2.4,1.38-3.09,3.6-2.7,6.18,1.86,12.48,3.87,24.93,6.83,37.21,5.09,21.13,11.85,41.78,18,62.6.08.28.18.55.28.8h6.45a5.83,5.83,0,0,0-.26-2.77C168.12,787.68,166.23,781.94,164.4,776.17ZM54.42,599.5c-4.67-4.42-10.92-27.92-10.92-27.92C49.08,579,56.34,591.92,54.42,599.5Zm23-3.17a43.48,43.48,0,0,0-8.45,4.23c-2.68,1.81-6,1.76-8.68,3.59-.67.47-1-.35-.89-.93,1.64-9.64-3-17.56-7.09-25.58-1.86-3.61-3.83-7.17-6-10.59-1.34-2.11-.36-3,1.35-3.76,4.19-1.78,8.36-3.63,12.65-5.18C70.64,554.37,80.53,549.43,91,546a42.71,42.71,0,0,1,8.76-2.17c1.11-.18,2-.19,2.65,1.31A253.51,253.51,0,0,1,113,578.51c.82,3.3.6,3.51-2.54,4.75Q93.92,589.8,77.37,596.33Zm35.42,46.2c-2.61,2.19-5.19,4.4-7.64,6.76-1.29,1.24-1.79.83-2.43-.52a87.1,87.1,0,0,1-4.53-13.4c-2.88-10.12-6.39-20-10-29.92-.84-2.32-2.34-5.09-1.69-7.06s4.1-1.93,6.23-3c.81-.41,1.68-.72,2.67-1.14,1,.07.94,1.05,1.25,1.73a322.63,322.63,0,0,1,12.42,32.2c1.34,4,2.95,7.87,4.47,11.79A2,2,0,0,1,112.8,642.53Z"/><path class="cls-1" d="M484.88,508.94a2.05,2.05,0,0,0-2.88-.65c-1,.79-2.89,1.52-2.31,3.12.71,1.93-.2,2.61-1.51,3.5s-2.56,2.12-3.85,3.16c-4.45,3.59-8.39,7.84-13.49,10.59a122.69,122.69,0,0,0-23.65,16.88c-1.09,1-2.21,1.91-3.48,3-2.5-14.09-9.54-24.59-22-31.2-5.81-3.08-12.05-4.63-18.52-3-11.32,2.78-19.07,10-22.92,20.87-3.68,10.38-2.57,20.93.82,31.27a5.46,5.46,0,0,1,.22,3.35c-2.89,10.87-6.28,21.66-7.18,32.95-.7,8.72,1.38,16.36,9.6,21.12.72.41,1.35,1,2,1.42a4.12,4.12,0,0,1,2,3.75c0,3.49.25,7,0,10.46-1.2,19.49-1,39-1.17,58.5-.25,25.31,1.55,50.63-.24,75.94-.53,7.41-.08,14.86-.47,22.29h4.84c.07-6.43,0-12.86.53-19.25,1.63-21.32.76-42.65.81-64,0-16.27.29-32.54.38-48.81.06-10.79,1.38-21.53,1.23-32.34-.08-5.47-1.78-9.89-6.75-12.69-5.77-3.26-7.79-8.49-7.73-14.84.08-9.09,2.08-17.93,3.43-26.86a6.06,6.06,0,0,1,1.39-3.42c1.37,1.86,1.87,4.29,4.07,5.45,1.09.34,1.47.81,1,2.09-1.1,2.94-2,6-2.9,9-.24.77-.18,1.55.72,1.86s1.38-.28,1.66-1,.52-1.4.75-2.1a74.78,74.78,0,0,1,7.06-15.84,29,29,0,0,1,8.45-9.32c.52-.35,1.07-1,1.77-.52s.47,1.19.46,1.83a47.42,47.42,0,0,1-1.79,10.25A12.78,12.78,0,0,0,398,587.5a20.07,20.07,0,0,1,4,8.44c.3,1.35.72,2.8,2.48,2.45s1.62-1.83,1.35-3.2c-.11-.57-.29-1.12-.45-1.67-1.2-4.07-3.68-7.37-6.37-10.54,1.2-.43,2.7-.25,3.4-1.69,2.33-1.08,4.7-2.1,7-3.27,1.35-.69,1.63-.35,1.72,1a157.12,157.12,0,0,0,3.34,22.15,280.46,280.46,0,0,1,5.84,55.9,515.75,515.75,0,0,0,5.61,69.21c1.32,9.28,3.21,18.48,4.52,27.77,2,14,3.95,28,5,42.13h6.26c-.29-5.07-1-10.1-1.55-15.15-2.45-24.05-7.91-47.65-10.68-71.66-1.75-15.19-3.36-30.36-3.58-45.67-.14-10.29-.52-20.58-1.66-30.84-2.07-18.77-7.64-36.88-10.36-55.53a2,2,0,0,1,1.12-2.49c2.74-1.72,5.46-3.49,8.17-5.25A22.94,22.94,0,0,0,433.43,556a3,3,0,0,1,1.16-1.81c8-5.88,15.53-12.53,24.23-17.42a88.3,88.3,0,0,0,17.5-12.64c1.39-1.31,2.9-2.5,4.21-3.88s2.39-1.93,3.36.47a21.87,21.87,0,0,0,2.7,4.15,2,2,0,0,0,2.38.91,1.92,1.92,0,0,0,1.33-2.15A26.49,26.49,0,0,0,484.88,508.94Zm-63,55.74c-6.21,4-12.2,8.4-19.27,10.86-1.78.62-3,2-4.44,3.1a5,5,0,0,1-.06-.53c-.12-1.66.54-3.2.85-4.79a51.83,51.83,0,0,0,1.11-7.6c.08-1.78-.06-3.62-1.73-4.65s-3.57-.49-5.17.44a18,18,0,0,0-3.3,2.6,40.33,40.33,0,0,0-8.25,11.42c-.31.62-.41,1.4-1,1.87a1.52,1.52,0,0,1-.51.3c-2.85-9-5.26-18-5.43-27.49s3-18,10.19-24.49c5.93-5.37,13.18-7.27,20.61-4.43,12.87,4.93,20.9,14.48,23.07,28.25A14.4,14.4,0,0,1,421.92,564.68Z"/><path class="cls-1" d="M298.81,620.52a8.54,8.54,0,0,0-6.57-1.71,8.91,8.91,0,0,1-3.65-.11c1.34-3.38,1-4.6-1.85-6.65a9.47,9.47,0,0,0-4.33-1.78c-1.56-.22-3.12-.48-4.69-.66s-2.06-.74-.86-2.12c3.1-3.57,5.75-7.52,9.15-10.85a65.79,65.79,0,0,0,8.18-10,12,12,0,0,0,2.24-5.21c.35-2.74-1.2-4.54-3.94-4.48a25.24,25.24,0,0,0-11.53,2.7c-4.18,2.22-8.31,4.5-12,8.27.29-1.79.61-3.06.68-4.34.2-3.64-1.29-4.84-4.87-4.05-3,.66-5.19,2.57-7.13,4.77-10.28,11.7-18,24.81-22,40-1.65,6.32-2.46,12.7-1.13,19.2a145.71,145.71,0,0,1,2.68,19.47c1,14.75,2.13,29.48,3.87,44.17,2.36,20,4.13,40,4.51,60.09.13,6.72,0,13.45,0,20.17a46.29,46.29,0,0,0,.67,8.85h3.57c-.14-2.69-.18-5.39-.08-8.08.52-13.87.43-27.72-.37-41.58-1.71-29.94-6.05-59.65-7.8-89.59a85.87,85.87,0,0,0-1.4-9.35c-.91-5.3-2.26-10.52-1.38-16,2.76-17.28,11-31.83,22.13-45a15.9,15.9,0,0,1,2.38-2.19c.63-.49,1.45-1.33,2.16-.86s.14,1.51-.08,2.27A147.19,147.19,0,0,1,259.59,603c-.51,1.22-.73,2.54.85,3.12,1.33.49,2.16-.28,2.71-1.5A70,70,0,0,1,270,593.39a29.17,29.17,0,0,1,20.52-12.29c.59-.08,1.4-.49,1.82.19s-.13,1.29-.46,1.84a56.35,56.35,0,0,1-7.74,10.66,144.66,144.66,0,0,0-9.82,11.91c-3,3.76-2.1,6.14,2.53,7.39,1.36.36,2.78.48,4.16.76a9.65,9.65,0,0,1,2.39.64c.7.34,1.77.72,1.62,1.65-.12.74-1.16.83-1.88,1-3.26.6-6.57,1-9.8,1.77a10.76,10.76,0,0,0-8.59,8.59,30.93,30.93,0,0,0-.26,8.92c.26,4,2.26,7,5.31,9.45,4.63,3.78,9.77,3.67,15.1,2.2,1.87-.51,3.29.11,3.93,1.65s-.77,2.46-2.06,3.14a67.74,67.74,0,0,1-9.17,3.76c-6.89,2.42-8.41,4.23-7.21,11,1.74,9.89,3.15,19.84,4.78,29.75,2.33,14.17,4.83,28.3,7.75,42.36,2.73,13.16,5.34,26.34,8,39.52,1.14,5.65,2.24,11.31,3.42,17h5a4.79,4.79,0,0,0-.09-1.24c-2.85-14.57-5.69-29.15-8.64-43.71-2.67-13.18-5.29-26.36-7.54-39.61-2.54-15-4.72-30-7.79-44.89-.84-4.1-.6-4.58,3.39-5.83a11.29,11.29,0,0,1,1.22-.26c3.73-.73,7-2.53,10.28-4.32a6.26,6.26,0,0,0,3.24-4c1.08-4.56,2.84-9,2.71-13.79l-.36-10.2c-.14-1.85-.17-3.18,2.27-3.21a2.28,2.28,0,0,0,2.41-1.79C300.62,622.08,299.77,621.22,298.81,620.52Zm-10,21.33c-.12,1-.25,1.52-1.45,1.34-2.18-.33-4.28.29-6.38.75-6.3,1.39-11.51-2.24-12.19-8.57a28.41,28.41,0,0,1-.2-6.2c.41-3.67,2.25-5.78,5.9-6.64,1.69-.4,3.38-.83,5.1-1.09s4.13-1.34,4.42,2.06a2.05,2.05,0,0,0,1.8,1.56c2.26.17,2.5,1.58,2.49,3.38,0,1.65.21,3.31.28,4.42C288.69,636.22,289.18,639,288.82,641.84Zm4,4.57c-1.51-1.19-2-2.05-1.75-3.78.81-4.87-.22-9.75-.42-14.63,0-.78-.87-2,1-2.18,1.64-.13,1.67.75,1.72,1.94A94.57,94.57,0,0,1,292.86,646.42Z"/><path class="cls-1" d="M855.12,584.14c-.79-2-2.86-2.4-3.78-4.23-.55-1.1-1.75-.19-1.83,1.07-.32,5.21-1.4,10.37-.89,15.62a28.31,28.31,0,0,0,.27,3.47c.68,3.45,1.67,6.83,4.48,9.2,3.37,2.85,7.2,1.38,8-2.93a16.6,16.6,0,0,0-.19-6.18C860,594.49,857.23,589.45,855.12,584.14ZM857,607.5a5.59,5.59,0,0,1-4.3-4.91c-.52-5.49-.87-16.87-.74-17.33a43.27,43.27,0,0,1,7.38,20.41C859.22,605.68,858,607.74,857,607.5Z"/><path class="cls-1" d="M871.56,554.59a33.23,33.23,0,0,0-12.33-2.05c-1.93.21-3.81.12-5.29,1.47-1,.91-1.17,2.2,0,2.67,4.28,1.68,7.37,5,11,7.57a10.2,10.2,0,0,0,5.26,2.08c3.54.27,5.47-1.4,5.69-5A6.18,6.18,0,0,0,871.56,554.59ZM869.8,563c-3.58-1.19-5.84-4.16-8.68-6.38a25.1,25.1,0,0,1,9.66,1.23c1.12.4,2.09.93,2.27,2.34C873.38,562.76,872.31,563.79,869.8,563Z"/><path class="cls-1" d="M820.09,548.14a25,25,0,0,0,1.38-3.19c.3-1,.25-2.1-1-2.5a1.71,1.71,0,0,0-2.2,1.49c-.33,1.88-1.41,3.34-2.23,4.94-4.51,8.78-9.05,17.54-13.55,26.32a9.11,9.11,0,0,0-1.27,3.93c.21.6.19,1.51,1.17,1.85,1.18.4,1.91-.39,2.58-1.1s2.34-1.36,1.56-2.41c-1-1.32-.12-2,.31-2.85C811.39,565.85,815.92,557.09,820.09,548.14Z"/></g></svg>